<?xml version="1.0" encoding="utf-8"?>
<!-- Generator: Adobe Illustrator 22.0.1, SVG Export Plug-In . SVG Version: 6.00 Build 0)  -->
<svg version="1.1" id="Layer_1" xmlns="http://www.w3.org/2000/svg" xmlns:xlink="http://www.w3.org/1999/xlink" x="0px" y="0px"
	 viewBox="0 0 338.4 100.4" style="enable-background:new 0 0 338.4 100.4;" xml:space="preserve">
<style type="text/css">
	.st0{fill:#32F2D6;}
	.st1{fill:none;stroke:#32F2D6;stroke-width:3;stroke-linecap:round;stroke-linejoin:round;stroke-miterlimit:10;}
</style>
<g>
	<path class="st0" d="M67.9,64.1c0.1-0.5,0.2-1,0.4-1.5c5.4-0.3,9.8-4.8,9.8-10.3v-4.8c0-5.2-3.8-9.4-8.8-10.2v-4.9
		c0-0.8-0.7-1.5-1.5-1.5H30.2c-0.8,0-1.5,0.7-1.5,1.5V53c0,3.9,0.5,7.7,1.4,11.1c-9.1,2.7-14.6,7.2-14.6,12.3
		c0,8.3,14.7,14.8,33.5,14.8s33.5-6.5,33.5-14.8C82.5,71.3,77.1,66.8,67.9,64.1z M75.1,47.5v4.8c0,3.7-2.7,6.7-6.2,7.2
		c0.3-2.1,0.5-4.3,0.5-6.5V40.4C72.6,41.1,75.1,44,75.1,47.5z M31.7,33.9h34.5V53c0,4-0.6,7.9-1.6,11.5c0,0.1-0.1,0.2-0.1,0.3
		c0,0.1,0,0.1,0,0.2c-1.2,4-3,7.5-5.3,10H38.8c-2.3-2.5-4.1-6-5.3-10v-0.1c0-0.1,0-0.1-0.1-0.2c-1-3.5-1.6-7.5-1.6-11.6L31.7,33.9
		L31.7,33.9z M49,88.1c-18.2,0-30.5-6.1-30.5-11.8c0-3.6,4.7-7.1,12.4-9.4c1.4,4.2,3.5,7.8,6.1,10.4c0.3,0.3,0.7,0.4,1.1,0.4h21.8
		c0.4,0,0.8-0.2,1.1-0.4c2.6-2.6,4.7-6.2,6.1-10.4c7.7,2.3,12.4,5.8,12.4,9.4C79.5,82,67.2,88.1,49,88.1z"/>
	<path class="st0" d="M36.3,18.2c1.3,0.7,2,1.5,2,3.4c0,2.3-1.5,3.1-2,3.3c-0.8,0.3-1.1,1.2-0.8,2c0.2,0.6,0.8,0.9,1.4,0.9
		c0.2,0,0.4,0,0.6-0.1c1.8-0.8,3.8-2.8,3.8-6.1c0-3.7-2.1-5.2-3.7-6c0,0-0.1,0-0.1-0.1c-0.5-0.2-2-1-2-3.3s1.5-3.1,2-3.3
		c0.8-0.3,1.1-1.2,0.8-2s-1.2-1.1-2-0.8c-1.8,0.8-3.8,2.8-3.8,6.1C32.6,15.4,34.5,17.4,36.3,18.2z"/>
	<path class="st0" d="M47.7,18.2c1.3,0.7,2,1.5,2,3.4c0,2.3-1.5,3.1-2,3.3c-0.8,0.3-1.1,1.2-0.8,2c0.2,0.6,0.8,0.9,1.4,0.9
		c0.2,0,0.4,0,0.6-0.1c1.8-0.8,3.8-2.8,3.8-6.1c0-3.7-2.1-5.2-3.7-6c0,0-0.1,0-0.1-0.1c-0.5-0.2-2-1-2-3.3s1.5-3.1,2-3.3
		c0.8-0.3,1.1-1.2,0.8-2s-1.2-1.1-2-0.8c-1.8,0.7-3.7,2.7-3.7,6S45.9,17.4,47.7,18.2z"/>
	<path class="st0" d="M59.1,18.2c1.3,0.7,2,1.5,2,3.4c0,2.3-1.5,3.1-2,3.3c-0.8,0.3-1.1,1.2-0.8,2c0.2,0.6,0.8,0.9,1.4,0.9
		c0.2,0,0.4,0,0.6-0.1c1.8-0.8,3.8-2.8,3.8-6.1c0-3.7-2.1-5.2-3.7-6c0,0-0.1,0-0.1-0.1c-0.5-0.2-2-1-2-3.3s1.5-3.1,2-3.3
		c0.8-0.3,1.1-1.2,0.8-2s-1.2-1.1-2-0.8c-1.8,0.8-3.8,2.8-3.8,6.1C55.3,15.3,57.2,17.4,59.1,18.2z"/>
</g>
<path class="st0" d="M319.7,58.2l0.8-1c0.1-0.1,0.1-0.2,0.2-0.3c0.8-1.7,0.8-3.6,0.1-5.6c-1.2-3.3-4.4-6.7-7.8-8.4
	c-0.1,0-0.1,0-0.2-0.1c-0.1,0-0.1-0.1-0.2-0.1c-2.4-1.2-5.7-1.7-8.6-1.5c-1.4,0.1-2.6,0.4-3.7,0.8l0.5-2.2c0-0.1,0-0.2,0-0.3
	c0-7.3-10-12-16.9-12c-0.1,0-0.2,0-0.3,0c-0.1,0-0.2,0-0.3,0c-6.9,0-16.9,4.7-16.9,12c0,0.1,0,0.2,0,0.3l0.4,2
	c-1.1-0.5-2.3-0.8-3.7-0.9c-2.9-0.3-6,0.3-8.5,1.4c-0.1,0-0.1,0.1-0.2,0.1c-0.1,0-0.1,0-0.2,0.1c-2.4,1.2-4.8,3.3-6.4,5.7
	c-2,2.9-2.4,5.9-1.3,8.3c0,0.1,0.1,0.2,0.2,0.3l1.5,2c-7,5.8-9.5,13.7-5.7,18.7c1.4,1.9,3.6,3.1,6.3,3.5c0.6,0.1,1.3,0.1,1.9,0.1
	c3.8,0,8.1-1.5,11.9-4.1c1.4,1.2,2.9,2,4.6,2c1.1,0,2.3-0.3,3.8-1l0.4-0.2c0.1,0,0.1-0.1,0.2-0.1c0.5-0.3,2-1.3,3.2-2.7
	c1.6,2.7,4,4.2,8.4,4.2h0.5c4.2,0,6.6-1.4,8.2-3.9c0.9,1.1,2.1,2,3.6,2.8l0.4,0.2c1.4,0.7,2.7,1,3.8,1c2.1,0,3.8-1.1,5.5-2.8
	c4.2,3,9,4.7,13.2,4.7c0.7,0,1.3,0,1.9-0.1c2.6-0.4,4.7-1.5,6-3.3C330.2,72.9,327.2,64.3,319.7,58.2z M249.5,78
	c-1.9-0.3-3.4-1.1-4.3-2.3c-2.7-3.6-0.5-9.8,5.1-14.5l9.5,12.4c0.4,0.4,0.7,0.9,1.1,1.3C257,77.3,252.8,78.5,249.5,78z M273.5,71.7
	c0,1-1.8,2.6-3.2,3.5l-0.3,0.1c-3,1.5-4.2,0.9-8-3.6l-12.7-16.5c-0.8-1.9,0.3-4.1,1.1-5.2c1.3-1.9,3.3-3.7,5.2-4.6
	c0.1,0,0.1-0.1,0.2-0.1c0.1,0,0.1,0,0.2-0.1c1.9-0.9,4.6-1.4,6.9-1.1c1.4,0.1,3.9,0.6,4.8,2.5c0,0.1,0.1,0.2,0.2,0.2l4.4,20.8
	C272.8,69.1,273.1,70.4,273.5,71.7C273.5,71.7,273.5,71.7,273.5,71.7z M283.9,76.4h-0.5c-5,0-6.2-2-8.1-9.4l-5.8-27.4
	c0.2-5.1,8.4-8.8,13.9-8.8c0.1,0,0.2,0,0.3,0c0.1,0,0.2,0,0.3,0c5.6,0,13.8,3.7,13.9,8.8L292,66.9C290.2,74.5,289,76.4,283.9,76.4z
	 M297.4,75.7l-0.4-0.2c-1.9-0.9-3.1-2.2-3.3-3.5c0,0,0-0.1,0-0.1c0.4-1.3,0.8-2.8,1.2-4.3l4.4-20.8c0.9-1.9,3.5-2.3,4.9-2.5
	c2.3-0.2,5.1,0.3,7,1.2c0.1,0,0.1,0,0.2,0.1c0.1,0,0.1,0.1,0.2,0.1c2.7,1.3,5.4,4.1,6.3,6.7c0.4,1.2,0.5,2.3,0.1,3.2L305.4,72
	C301.6,76.6,300.4,77.1,297.4,75.7z M324.1,76.1c-0.8,1.1-2.2,1.8-4,2.1c-3.7,0.5-8.6-1-12.7-3.9c0.1-0.1,0.2-0.3,0.4-0.4l10.2-13.3
	C323.9,65.5,326.7,72.5,324.1,76.1z"/>
<path class="st1" d="M163.7,34.7c0-9.3-7.5-16.8-16.8-16.8s-16.8,7.5-16.8,16.8c0,3.7,1.3,7.2,3.3,10l30.3,37.8l31-38.8
	c1.7-2.6,2.7-5.7,2.7-9c0-9.3-7.5-16.8-16.8-16.8C171.2,17.9,163.7,25.4,163.7,34.7"/>
</svg>
